<svg width="248" height="32" viewBox="0 0 248 32" fill="none" xmlns="http://www.w3.org/2000/svg">
<path fill-rule="evenodd" clip-rule="evenodd" d="M17.8887 22.9449C21.6192 22.9449 24.6756 19.8127 24.6756 16.0137C24.6756 12.1908 21.6192 9.05469 17.8887 9.05469C14.1582 9.05469 11.0979 12.1908 11.0979 16.0137C11.0979 19.8127 14.1582 22.9449 17.8887 22.9449Z" fill="#D91A32"/>
<path fill-rule="evenodd" clip-rule="evenodd" d="M17.8848 0C9.30437 0 2.26953 7.20115 2.26953 16.0021C2.27728 18.4038 2.80799 20.7738 3.8268 22.9373H13.6818C11.4117 21.4883 9.87769 18.9159 9.87769 16.0021C9.87769 11.4925 13.4881 7.82043 17.8887 7.79264H35.7741V0H17.8848Z" fill="#F47920"/>
<path fill-rule="evenodd" clip-rule="evenodd" d="M31.9434 9.06641H22.1156C24.3895 10.5114 25.8964 13.0878 25.8964 16.0016C25.8964 20.5073 22.286 24.1833 17.8892 24.211H0V31.9997H17.8854C26.4891 31.9997 33.5201 24.7946 33.5201 16.0016C33.5201 13.5959 32.9777 11.226 31.9434 9.06641Z" fill="#F47920"/>
<path d="M188.805 5.93848H184.443V26.0612H188.805V5.93848Z" fill="white"/>
<path d="M59.1796 26.0611H43.053V23.2823L50.7464 15.6127L43.4055 8.93161V5.94238H58.5017V9.47547H49.6268L55.9954 15.6723L49.2704 22.5876H59.1796V26.0611Z" fill="white"/>
<path d="M79.9897 26.0612H74.7136L67.7872 16.8791L65.5481 18.9911V26.0612H61.1824V5.93848H65.5443V14.2472L73.7993 5.93848H79.2227L70.8243 14.0963L79.9897 26.0612Z" fill="white"/>
<path d="M94.5825 26.0612H99.3589L92.111 5.93848H87.8653L80.6716 26.0612H85.3589L90.0191 11.0476L94.5825 26.0612Z" fill="white"/>
<path fill-rule="evenodd" clip-rule="evenodd" d="M120.793 26.0612H116.221L114.808 21.9207H106.611L105.169 26.0612H100.629L108.179 5.93848H113.161L120.793 26.0612ZM113.657 18.5703L110.713 10.0789L110.682 9.98763L107.734 18.5703H113.657Z" fill="white"/>
<path fill-rule="evenodd" clip-rule="evenodd" d="M137.745 24.5766C139.275 23.5206 140.042 21.9208 140.046 19.8684C140.046 18.7807 139.743 17.8121 139.189 16.9983C138.632 16.1845 137.834 15.6089 136.776 15.2159C137.566 14.8507 138.186 14.3068 138.632 13.6121C139.073 12.8856 139.279 12.0718 139.279 11.1945C139.279 9.41208 138.632 8.05045 137.276 7.14535C136.125 6.35933 134.595 5.93457 132.647 5.93457H122.656V26.0573H130.853H132.298C134.56 26.0613 136.389 25.5769 137.745 24.5766ZM130.845 22.4329H126.805V17.1809H130.845H131.938C132.999 17.1809 133.886 17.4231 134.533 17.8756C135.18 18.3282 135.505 19.0229 135.505 19.928C135.505 20.8053 135.153 21.4682 134.386 21.9208C133.797 22.2543 132.968 22.4369 131.965 22.4369H130.845V22.4329ZM131.818 13.7352H126.809V9.44384H130.849H131.763C132.709 9.44384 133.414 9.56293 133.917 9.80509C134.595 10.1663 134.921 10.742 134.921 11.5558C134.921 12.3418 134.599 12.9134 133.917 13.3064C133.379 13.5843 132.701 13.7352 131.818 13.7352Z" fill="white"/>
<path d="M158.973 26.0612H143.048V5.93848H158.411V9.47156H147.355V13.7351H157.493V17.1808H147.355V22.3455H158.973V26.0612Z" fill="white"/>
<path d="M175.421 26.0612H179.93V5.93848H175.657V19.7771L167.019 5.93848H162.51V26.0612H166.814V12.2544L175.421 26.0612Z" fill="white"/>
<path d="M202.332 9.56287H208.585V5.93848H191.691V9.56287H197.943V26.0612H202.332V9.56287Z" fill="white"/>
<path d="M228.783 26.0612H224.421V17.1173H215.693V26.0612H211.358V5.93848H215.693V13.4294H224.417V5.93848H228.779V26.0612H228.783Z" fill="white"/>
<path d="M231.107 26.0611H247.265V22.5876H237.359L244.05 15.6723L237.712 9.47547H246.587V5.94238H231.495V8.93161L238.804 15.6088L231.111 23.2783V26.0611H231.107Z" fill="white"/>
</svg>
