<svg width="20" height="20" viewBox="0 0 20 20" fill="none" xmlns="http://www.w3.org/2000/svg">
<path d="M9.98537 1.0003C9.90727 1.00339 9.83207 1.03143 9.77031 1.08049L1.1562 7.94872C1.11526 7.97882 1.08066 8.01708 1.05448 8.0612C1.02831 8.10532 1.01109 8.15439 1.00387 8.20549C0.996644 8.25659 0.999559 8.30865 1.01244 8.35857C1.02532 8.40848 1.0479 8.45522 1.07882 8.49599C1.10975 8.53675 1.14839 8.5707 1.19242 8.59581C1.23646 8.62091 1.28499 8.63666 1.33511 8.6421C1.38522 8.64754 1.43589 8.64256 1.48409 8.62746C1.53228 8.61236 1.577 8.58746 1.61558 8.55424L2.13494 8.13982V18.6112C2.13495 18.7129 2.17442 18.8105 2.24465 18.8825C2.31489 18.9544 2.41014 18.9949 2.50947 18.9949H7.68993C7.73038 19.0017 7.77165 19.0017 7.81209 18.9949H12.1842C12.2247 19.0017 12.266 19.0017 12.3064 18.9949H17.4905C17.5899 18.9949 17.6851 18.9544 17.7553 18.8825C17.8256 18.8105 17.865 18.7129 17.8651 18.6112V8.13982L18.3844 8.55424C18.423 8.58746 18.4677 8.61237 18.5159 8.62746C18.5641 8.64256 18.6148 8.64754 18.6649 8.6421C18.715 8.63666 18.7635 8.62091 18.8076 8.59581C18.8516 8.5707 18.8903 8.53675 18.9212 8.49599C18.9521 8.45522 18.9747 8.40848 18.9876 8.35857C19.0004 8.30865 19.0034 8.25659 18.9961 8.20549C18.9889 8.15439 18.9717 8.10532 18.9455 8.0612C18.9193 8.01708 18.8847 7.97882 18.8438 7.94872L10.2297 1.08049C10.16 1.02513 10.0735 0.996731 9.98537 1.0003ZM10 1.8696L17.116 7.5433V18.2275H12.6217V11.321C12.6217 11.2193 12.5822 11.1217 12.512 11.0497C12.4417 10.9778 12.3465 10.9373 12.2472 10.9373H7.75284C7.65351 10.9373 7.55826 10.9778 7.48802 11.0497C7.41779 11.1217 7.37832 11.2193 7.37831 11.321V18.2275H2.884V7.5433L10 1.8696ZM8.12737 11.7047H11.8726V18.2275H8.12737V11.7047Z" fill="white" stroke="white"/>
</svg>
