<svg width="296" height="27" viewBox="0 0 296 27" fill="none" xmlns="http://www.w3.org/2000/svg">
<path fill-rule="evenodd" clip-rule="evenodd" d="M14.5346 7.68506C15.6058 7.68699 16.6524 8.01712 17.5421 8.6337C18.4318 9.25028 19.1245 10.1256 19.5327 11.149C19.9409 12.1724 20.0463 13.2979 19.8355 14.3832C19.6247 15.4685 19.1071 16.4648 18.3483 17.2462C17.5895 18.0275 16.6235 18.5588 15.5725 18.7729C14.5215 18.9869 13.4327 18.8741 12.4437 18.4487C11.4547 18.0233 10.61 17.3045 10.0165 16.383C9.42286 15.4616 9.10703 14.379 9.10889 13.272C9.11265 11.7881 9.68609 10.3663 10.7033 9.31883C11.7206 8.27135 13.0985 7.68376 14.5346 7.68506Z" fill="#DA1A32"/>
<path fill-rule="evenodd" clip-rule="evenodd" d="M14.5252 26.178C16.6363 26.1862 18.7147 25.6389 20.5647 24.5878C22.4146 23.5366 23.9752 22.0162 25.0994 20.1697C26.2236 18.3232 26.8745 16.2115 26.9907 14.0332C27.107 11.855 26.6847 9.68211 25.7638 7.7191H17.8967C19.0888 8.4674 20.01 9.59957 20.5188 10.9416C21.0275 12.2835 21.0956 13.761 20.7125 15.1469C20.3295 16.5327 19.5165 17.7502 18.3987 18.6122C17.2808 19.4741 15.9199 19.9328 14.5252 19.9177H0.250244V26.178H14.5252ZM14.5346 0.438965C11.2331 0.442816 8.06751 1.79773 5.73035 4.20728C3.39319 6.61682 2.07477 9.88482 2.06353 13.2963C2.06007 15.2368 2.48481 17.1525 3.30545 18.8979H11.163C9.97096 18.1496 9.04975 17.0174 8.54103 15.6754C8.0323 14.3335 7.96422 12.856 8.34726 11.4701C8.7303 10.0843 9.54324 8.86677 10.6611 8.00482C11.779 7.14288 13.1399 6.68419 14.5346 6.69929H28.8048V0.438965H14.5346Z" fill="#F47920"/>
<path fill-rule="evenodd" clip-rule="evenodd" d="M200.217 21.4941H187.184V19.2202L193.394 12.9843L187.5 7.54861V5.10889H199.693V7.96336H192.511L197.648 13.0185L192.232 18.664H200.217V21.4941ZM185.281 21.4941H181.801V14.2139H174.746V21.4941H171.228V5.12352H174.746V11.2228H181.801V5.12352H185.319L185.281 21.4941ZM168.999 8.07071H163.947V21.4941H160.405V8.07071H155.357V5.14304H168.999V8.07071ZM153.02 21.4941H149.502V5.12352H153.02V21.4941ZM145.852 21.4941H142.22L135.255 10.2469V21.4941H131.78V5.12352H135.444L142.4 16.3902V5.12352H145.852V21.4941ZM128.927 21.4941H116.083V5.12352H128.479V7.978H119.545V11.4522H127.738V14.2822H119.545V18.4786H128.913L128.927 21.4941ZM109.992 16.5073C110.012 16.1812 109.949 15.8555 109.809 15.5626C109.669 15.2697 109.457 15.02 109.194 14.8385C108.565 14.4426 107.837 14.249 107.102 14.2822H102.942V18.542H107.111C107.784 18.5759 108.455 18.4297 109.057 18.1175C109.348 17.9705 109.592 17.7399 109.759 17.4535C109.927 17.1671 110.011 16.8369 110.001 16.5024L109.992 16.5073ZM109.496 9.67605C109.515 9.38485 109.449 9.09455 109.306 8.84241C109.164 8.59027 108.952 8.3878 108.698 8.26101C108.147 8.02323 107.552 7.9165 106.956 7.94872H102.942V11.4473H106.998C107.58 11.4766 108.16 11.3542 108.684 11.0911C108.935 10.9602 109.144 10.7569 109.286 10.5058C109.427 10.2546 109.496 9.96639 109.482 9.67605H109.496ZM113.642 16.4585C113.676 17.2079 113.524 17.9539 113.2 18.6253C112.876 19.2967 112.391 19.8711 111.791 20.2937C110.686 21.0939 109.213 21.4892 107.385 21.4892H99.5938V5.12352H107.664C108.98 5.06527 110.285 5.40437 111.418 6.09941C111.942 6.45869 112.367 6.95247 112.651 7.5324C112.935 8.11233 113.068 8.75852 113.038 9.40768C113.045 10.0971 112.862 10.7743 112.509 11.3595C112.153 11.9524 111.621 12.411 110.993 12.6671C111.78 12.9361 112.468 13.4468 112.967 14.131C113.429 14.8133 113.665 15.6311 113.642 16.4634V16.4585ZM92.3123 15.4045L89.8993 8.40251L87.5383 15.4045H92.3123ZM98.1016 21.4892H94.4042L93.2473 18.1175H86.6363L85.47 21.4941H81.782L87.8877 5.12352H91.9109L98.1016 21.4892ZM80.762 21.4892H76.9182L73.1925 9.27105L69.4431 21.5136H65.6371L71.4784 5.12352H74.8925L80.762 21.4892ZM65.1271 21.4892H60.8773L55.2721 14.0139L53.4541 15.7461V21.4941H49.9361V5.12352H53.4541V11.862L60.1264 5.12352H64.5085L57.7134 11.7449L65.1271 21.4892ZM48.3165 21.4892H35.2834V19.2202L41.493 12.9843L35.5857 7.54861V5.10889H47.7781V7.96336H40.61L45.7429 13.0331L40.3267 18.664H48.3165V21.4892Z" fill="#65141B"/>
<path d="M222.339 16.888L212.979 5.2H210.147V22H213.003V9.928H213.051L222.747 22H225.243V5.2H222.411V16.888H222.339ZM230.371 15.688C228.931 16.024 227.827 17.128 227.827 18.64C227.827 20.848 229.387 22.24 233.275 22.24C235.795 22.24 237.715 21.28 239.059 19.936L237.427 18.328C236.491 19.336 234.979 20.032 233.347 20.032C231.739 20.032 230.611 19.552 230.611 18.352C230.611 17.368 231.379 16.624 232.771 16.624H235.555V14.776H232.891C231.955 14.776 231.067 14.368 231.067 13.384C231.067 12.184 232.315 11.848 233.395 11.848C234.883 11.848 235.915 12.184 237.091 13.192L238.747 11.56C237.475 10.336 235.915 9.64 233.371 9.64C230.899 9.64 228.307 10.552 228.307 13.024C228.307 14.296 229.147 15.304 230.371 15.64V15.688ZM232.771 7.96H234.787L237.667 5.2L235.099 4.024L232.771 7.96ZM246.357 9.88C242.685 9.88 239.949 12.472 239.949 16.048C239.949 19.624 242.757 22.24 246.333 22.24C249.957 22.24 252.765 19.648 252.765 16.096C252.765 14.368 251.781 12.688 250.389 12.136V12.088H253.413V9.88H246.357ZM246.357 19.792C244.293 19.792 242.757 18.136 242.757 16.048C242.757 13.912 244.197 12.28 246.333 12.28C248.445 12.28 249.957 13.936 249.957 16.048C249.957 18.16 248.469 19.792 246.357 19.792ZM257.843 22H260.651V12.28H264.275V9.88H254.171V12.28H257.843V22ZM278.913 16.264C278.913 18.568 278.145 19.84 276.657 19.84C275.361 19.84 274.641 19.024 274.641 17.08V13.624H271.953V17.08C271.953 19.024 271.257 19.84 269.961 19.84C268.449 19.84 267.681 18.568 267.681 16.264C267.681 14.8 268.233 12.328 270.873 12.04L270.489 9.664C267.033 9.904 264.993 12.424 264.993 16.24C264.993 20.008 266.817 22.24 269.745 22.24C270.945 22.24 272.529 21.856 273.297 19.912C274.089 21.832 275.649 22.24 276.873 22.24C279.801 22.24 281.625 20.008 281.625 16.24C281.625 12.424 279.585 9.904 276.105 9.664L275.745 12.04C278.385 12.328 278.913 14.8 278.913 16.264ZM289.5 19.816C287.508 19.816 286.02 18.184 286.02 15.928C286.02 13.552 287.484 12.04 289.548 12.04C291.636 12.04 292.98 13.576 292.98 15.952C292.98 18.304 291.516 19.816 289.5 19.816ZM286.212 20.656C287.004 21.616 288.204 22.24 289.764 22.24C292.764 22.24 295.788 19.96 295.788 15.856C295.788 11.968 293.1 9.64 289.572 9.64C285.852 9.64 283.38 12.184 283.38 15.928V26.56H286.164V20.656H286.212Z" fill="#C2C2C2"/>
</svg>
