<svg width="129" height="41" viewBox="0 0 129 41" fill="none" xmlns="http://www.w3.org/2000/svg">
<rect x="0.75" y="3.75" width="28.5" height="28.5" rx="14.25" fill="white"/>
<path d="M17.3928 18.7219L17.3928 18.7219C18.0675 18.1483 18.5464 17.6565 18.8551 17.1117C19.1655 16.564 19.2998 15.9703 19.2998 15.1998C19.2998 14.0594 18.8467 12.9657 18.0404 12.1594C17.234 11.353 16.1403 10.9 15 10.9C13.8596 10.9 12.7659 11.353 11.9596 12.1594C11.1532 12.9657 10.7002 14.0594 10.7002 15.1998V15.8998V15.9998H10.8002H12.2001H12.3001V15.8998V15.1998C12.3001 13.7081 13.5083 12.4999 15 12.4999C16.4917 12.4999 17.6998 13.7081 17.6998 15.1998C17.6998 15.6897 17.6229 16.0397 17.4229 16.3764C17.2202 16.7175 16.887 17.0523 16.3568 17.5028C15.5693 18.1717 15.0276 18.7283 14.6845 19.3413C14.3398 19.9573 14.2 20.622 14.2 21.4995V21.5995H14.3H15.6999H15.7999V21.4995C15.7999 20.9118 15.8688 20.5045 16.0952 20.1045C16.3242 19.7 16.7191 19.2942 17.3928 18.7219ZM15.4402 22.8871C15.3006 22.8293 15.1511 22.7995 15 22.7994C14.6949 22.7993 14.4023 22.9204 14.1865 23.136C13.9707 23.3517 13.8494 23.6442 13.8493 23.9493C13.8492 24.2544 13.9703 24.547 14.186 24.7628C14.4016 24.9786 14.6942 25.0999 14.9992 25.1C15.1503 25.1 15.2999 25.0703 15.4395 25.0126C15.579 24.9548 15.7059 24.8701 15.8127 24.7634C15.9196 24.6566 16.0043 24.5298 16.0622 24.3903C16.1201 24.2507 16.1499 24.1011 16.1499 23.9501C16.15 23.799 16.1203 23.6494 16.0625 23.5099C16.0047 23.3703 15.92 23.2434 15.8133 23.1366C15.7065 23.0297 15.5797 22.945 15.4402 22.8871Z" fill="#A6A6A6" stroke="#A6A6A6" stroke-width="0.2"/>
<rect x="0.75" y="3.75" width="28.5" height="28.5" rx="14.25" stroke="#A6A6A6" stroke-width="1.5"/>
<rect x="44" y="3" width="30" height="30" rx="15" fill="white"/>
<path fill-rule="evenodd" clip-rule="evenodd" d="M66.2805 23.1212V23.0134C66.2729 22.2812 65.9941 22.1354 65.6289 21.9445C64.918 21.5727 63.88 21.0299 63.88 15.6562C63.88 13.2397 62.0575 11.2332 59.657 10.8665V10.586C59.657 10.2192 59.4125 9.89557 59.0347 9.83085C58.5457 9.74455 58.1012 10.1113 58.1012 10.5644V10.888C55.7008 11.2548 53.8782 13.2397 53.8782 15.6778C53.8782 21.0652 52.883 21.559 52.1801 21.9077C51.7965 22.098 51.5 22.2452 51.5 23.1212C51.5 23.337 51.6778 23.5312 51.9223 23.5312H65.8582C66.0804 23.5312 66.2805 23.3586 66.2805 23.1212ZM58.3072 12.236L58.9497 12.1378L59.4511 12.2145C61.2273 12.4859 62.5164 13.9547 62.5164 15.6562C62.5164 17.7408 62.6672 19.2065 62.9282 20.2614C63.1295 21.0749 63.4087 21.6933 63.7732 22.1675H54.0128C54.3673 21.7093 54.6359 21.1129 54.8298 20.3351C55.0915 19.285 55.2418 17.8075 55.2418 15.6778C55.2418 13.9584 56.5271 12.508 58.3072 12.236Z" fill="#A6A6A6"/>
<path d="M61.3316 24.8948C61.3995 24.6949 61.4426 24.4837 61.4574 24.2647H56.3009C56.3157 24.4837 56.3587 24.6949 56.4266 24.8948C56.5175 25.1622 56.6527 25.4095 56.8239 25.6284C57.2943 26.2296 58.0369 26.6164 58.8791 26.6164C59.7213 26.6164 60.4639 26.2296 60.9343 25.6284C61.1056 25.4095 61.2408 25.1622 61.3316 24.8948Z" fill="#A6A6A6"/>
<path fill-rule="evenodd" clip-rule="evenodd" d="M74 18C74 26.2843 67.2843 33 59 33C50.7157 33 44 26.2843 44 18C44 9.71573 50.7157 3 59 3C67.2843 3 74 9.71573 74 18ZM72.6364 18C72.6364 25.5312 66.5312 31.6364 59 31.6364C51.4688 31.6364 45.3636 25.5312 45.3636 18C45.3636 10.4688 51.4688 4.36364 59 4.36364C66.5312 4.36364 72.6364 10.4688 72.6364 18Z" fill="#A6A6A6"/>
<rect x="89" y="1" width="34" height="34" rx="17" fill="#DB620B"/>
<path d="M96.5487 25H98.9687V13.22H105.809V11H96.5487V25ZM117.416 25V22.78H109.456L117.236 13.2V11H106.636V13.22H114.276L106.416 22.82V25H117.416Z" fill="white"/>
<rect x="113" y="27" width="16" height="14" rx="7" fill="white"/>
<path d="M121 37.0556C121.75 37.0556 122.388 36.8126 122.913 36.3267C123.438 35.8404 123.7 35.25 123.7 34.5556C123.7 33.8611 123.438 33.2707 122.913 32.7844C122.388 32.2985 121.75 32.0556 121 32.0556C120.25 32.0556 119.612 32.2985 119.087 32.7844C118.562 33.2707 118.3 33.8611 118.3 34.5556C118.3 35.25 118.562 35.8404 119.087 36.3267C119.612 36.8126 120.25 37.0556 121 37.0556ZM116.2 39C115.87 39 115.588 38.8913 115.353 38.6739C115.118 38.4561 115 38.1944 115 37.8889V31.2222C115 30.9167 115.118 30.6552 115.353 30.4378C115.588 30.22 115.87 30.1111 116.2 30.1111H118.09L118.84 29.3611C118.95 29.2407 119.082 29.1504 119.237 29.09C119.392 29.03 119.555 29 119.725 29H122.275C122.445 29 122.608 29.03 122.763 29.09C122.918 29.1504 123.05 29.2407 123.16 29.3611L123.91 30.1111H125.8C126.13 30.1111 126.413 30.22 126.648 30.4378C126.883 30.6552 127 30.9167 127 31.2222V37.8889C127 38.1944 126.883 38.4561 126.648 38.6739C126.413 38.8913 126.13 39 125.8 39H116.2ZM125.8 37.8889V31.2222H116.2V37.8889H125.8Z" fill="#A6A6A6"/>
<rect x="89" y="1" width="34" height="34" rx="17" stroke="#DB620B" stroke-width="2"/>
</svg>
