<!-- Generator: Adobe Illustrator 23.0.1, SVG Export Plug-In  -->
<svg version="1.1" xmlns="http://www.w3.org/2000/svg" xmlns:xlink="http://www.w3.org/1999/xlink" x="0px" y="0px"
	 width="1214.5px" height="491.5px" viewBox="0 0 1214.5 491.5" style="enable-background:new 0 0 1214.5 491.5;"
	 xml:space="preserve">
<style type="text/css">
	.st0{fill-rule:evenodd;clip-rule:evenodd;fill:#E6E7E8;}
</style>
<defs>
</defs>
<path class="st0" d="M815.8,490.9c34.4-59.6,55-134.1,55-214.4c0-111.2-38.9-211-99.2-276c-47.4,0-292.4,0-329.1,0
	c-60.4,65-99.3,164.8-99.3,276c0,80.3,20.6,154.8,55,214.4C452.7,490.9,777.9,490.9,815.8,490.9z"/>
<path class="st0" d="M36.1,0C12.8,86.2,0,179.2,0,275.9C0.2,349,7.6,421.5,22.1,491.5c38.9,0,257,0,319.5,0
	c-29-63-45.9-136.9-45.9-215.7c0-105.6,29.8-202.2,78.6-275.9C279.6,0,73.2,0,36.1,0z"/>
<path class="st0" d="M839.9,0.6c48.7,73.5,78.3,170,78.3,275.2c0,78.8-16.6,152.7-45.3,215.7c100.7,0,269.9,0,319.8,0
	c14.2-68.8,21.8-141.1,21.8-215.7c0-94.2-12.5-187.3-36.6-275.2C1116.8,0.6,965.2,0.6,839.9,0.6z"/>
</svg>
